<svg xmlns="http://www.w3.org/2000/svg" width="648" height="632" viewBox="0 0 648 632"><g transform="translate(-276 -134)"><path d="M687 276H513a15 15 0 00-15 15v388l-2 1-43 13a8 8 0 01-10-5L316 271a8 8 0 015-10l66-20 191-59 66-20a8 8 0 0110 5l33 106Z" fill="#eee"/><path d="m726 276-40-130a17 17 0 00-21-11l-93 28-191 59-93 28a17 17 0 00-11 21l134 438a17 17 0 0016 12 17 17 0 005-1l66-20v-2l-66 21a15 15 0 01-19-10l-134-438a15 15 0 0110-19l93-28 191-59 93-28a15 15 0 014-1 15 15 0 0114 11l40 129z" fill="#333"/><path d="m399 262a9 9 0 003 0l176-54a9 9 0 006-11l-13-43a9 9 0 00-11-6l-176 54a9 9 0 00-6 11l13 42a9 9 0 009 6" fill="#000"/><path d="m879 716H541a9 9 0 01-9-9V302a9 9 0 019-9h338a9 9 0 019 9v405a9 9 0 01-9 9" fill="#eee"/><path d="M723 274H512a17 17 0 00-17 17v408l2-1V291a15 15 0 0115-15h212zm184 0H513a17 17 0 00-17 17v458a17 17 0 0017 17h394a17 17 0 0017-17V291a17 17 0 00-17-17Zm15 475a15 15 0 01-15 15H513a15 15 0 01-15-15V291a15 15 0 0115-15h394a15 15 0 0115 15Z" fill="#333"/><path d="m802 318h-184a9 9 0 01-9-9v-44a9 9 0 019-9h184a9 9 0 019 9v44a9 9 0 01-9 9" fill="#000"/></g><circle cx="190" cy="25" r="20" fill="#000"/><circle cx="190" cy="25" r="12" fill="#fff"/><circle cx="434" cy="105" r="20" fill="#000"/><circle cx="434" cy="105" r="12" fill="#fff"/></svg>